<?xml version="1.0" encoding="utf-8"?>
<!-- Generator: Adobe Illustrator 25.4.1, SVG Export Plug-In . SVG Version: 6.00 Build 0)  -->
<svg version="1.1" id="flower-3" xmlns="http://www.w3.org/2000/svg" xmlns:xlink="http://www.w3.org/1999/xlink" x="0px" y="0px"
	 viewBox="0 0 53 53" style="enable-background:new 0 0 53 53;" xml:space="preserve">
<style type="text/css">
	.st0{fill:none;}
	.st1{fill:none;stroke:#231916;stroke-miterlimit:10;}
	.st2{fill:#1BAFAB;}
	.st3{fill:#F5C258;}
	.st4{fill:#2DB2AD;}
</style>
<path id="bound" class="st0" d="M0,0h53v53H0V0z"/>
<line class="st1" x1="12.6" y1="35" x2="8.8" y2="32.7"/>
<line class="st1" x1="8.8" y1="32.7" x2="8.8" y2="32.7"/>
<polygon class="st2" points="26.5,15.1 26.5,46.7 23.6,45 23.6,16.9 26.5,15.1 "/>
<path class="st1" d="M33.1,39.3"/>
<path class="st1" d="M33.1,25.3"/>
<polygon class="st2" points="44.3,8.1 44.3,11.6 29.5,20.4 29.5,16.9 "/>
<path class="st1" d="M33.1,18.3"/>
<polygon class="st3" points="26.5,15.1 23.6,16.9 8.8,8.1 11.7,6.4 "/>
<line class="st1" x1="8.8" y1="8.1" x2="8.8" y2="8.1"/>
<path class="st1" d="M15.3,8.5"/>
<path class="st1" d="M15.3,15.5"/>
<path class="st1" d="M15.3,8.5"/>
<path class="st1" d="M15.3,15.5"/>
<polygon class="st3" points="29.5,16.9 29.5,45 26.5,46.7 26.5,15.1 "/>
<polygon class="st3" points="44.3,8.1 29.5,16.9 26.5,15.1 41.3,6.3 "/>
<line class="st1" x1="8.8" y1="8.1" x2="8.8" y2="8.1"/>
<line class="st1" x1="26.5" y1="15.1" x2="26.5" y2="15.1"/>
<line class="st4" x1="8.8" y1="8.1" x2="8.8" y2="8.1"/>
<polygon class="st2" points="23.6,41.5 23.6,45 8.8,36.2 8.8,32.7 "/>
<polygon class="st3" points="23.6,38 23.6,41.5 12.6,35 16.3,33.6 "/>
<polygon class="st2" points="23.6,27.4 23.6,27.4 23.6,30.9 8.8,22.2 8.8,18.7 "/>
<polygon class="st2" points="23.7,16.9 23.7,20.4 8.8,11.6 8.8,8.1 "/>
<polyline class="st3" points="29.5,27.4 29.5,23.9 41.3,16.9 44.3,18.6 44.3,18.6 29.5,27.4 "/>
<polygon class="st2" points="23.6,30.9 12.6,35 8.8,32.7 8.8,32.7 19.8,28.7 "/>
<polygon class="st3" points="23.6,23.9 23.6,27.4 8.8,18.7 11.7,16.9 "/>
<line class="st0" x1="29.5" y1="27.4" x2="44.3" y2="18.6"/>
<polyline class="st2" points="29.5,27.4 44.3,18.6 44.3,22.2 44.3,22.2 29.5,30.9 "/>
<polygon class="st2" points="44.3,32.7 44.3,36.2 44.3,36.2 29.5,45 29.5,41.5 40.6,24.3 44.3,22.2 44.3,22.2 33.1,39.3 "/>
<line class="st0" x1="34.2" y1="28.1" x2="40.6" y2="24.3"/>
<polyline class="st3" points="44.3,32.7 41.4,30.9 36.8,33.6 33.1,39.3 44.3,32.7 "/>
<polygon class="st3" points="34.2,28.1 29.5,35.3 29.5,41.5 40.6,24.3 "/>
</svg>
